<?xml version="1.0" encoding="utf-8"?>
<!-- Generator: Adobe Illustrator 27.0.0, SVG Export Plug-In . SVG Version: 6.00 Build 0)  -->
<svg version="1.1" xmlns="http://www.w3.org/2000/svg" xmlns:xlink="http://www.w3.org/1999/xlink" x="0px" y="0px"
	 viewBox="0 0 2000 2000" style="enable-background:new 0 0 2000 2000;" xml:space="preserve">
<style type="text/css">
	.st0{fill:#1B73BA;}
	.st1{fill:#1C88C7;}
	.st2{fill:#FFFFFF;}
	.st3{display:none;}
	.st4{display:inline;}
	.st5{fill:#E34E26;}
	.st6{fill:#EF662A;}
	.st7{fill:#EBEBEB;}
</style>
<g id="css3">
	<g id="Logo_artwork">
	</g>
	<path class="st0" d="M341.16,1721.64L208.63,101.98l1582.75,3.25l-140.14,1616.4l-645.26,186.84L341.16,1721.64z"/>
	<path class="st1" d="M1005.97,1752.06V256.24l651.79,2.17l-116.23,1338.31L1005.97,1752.06z"/>
	<path class="st2" d="M1495.9,447.43H493.24l27.16,195.52H996.2L528.01,843.92l27.15,189.01h689.81l-24.99,263.96l-233.56,45.63
		l-211.82-54.31l-16.3-149.91H563.85l26.06,311.78l417.14,116.23l399.77-127.09l51.06-609.42h-422.59l460.59-191.18L1495.9,447.43z"
		/>
</g>
<g id="html5" class="st3">
	<g id="Guides_to_delete" class="st4">
		<g>
			<polygon class="st5" points="352.73,1718.4 208.63,101.98 1791.37,101.98 1647.09,1718.53 999.61,1898.02 			"/>
			<polygon class="st6" points="1000,234.11 1000,1760.72 1523.56,1615.58 1646.92,234.11 			"/>
			<polygon class="st2" points="503.47,432.38 556.91,1031.9 1244.05,1031.9 1220.99,1289.04 999.74,1348.86 778.92,1289.13 
				764.16,1124.02 565.16,1124.02 593.61,1442.3 999.7,1555.09 1406.3,1442.3 1460.81,833.67 738.23,833.67 720.09,630.65 
				1478.17,630.65 1478.77,630.65 1496.53,432.38 			"/>
			<g>
				<polygon class="st7" points="1000,432.38 503.47,432.38 556.91,1031.9 1000,1031.9 1000,833.67 738.23,833.67 720.09,630.65 
					1000,630.65 				"/>
				<polygon class="st7" points="1000,1348.77 999.74,1348.86 778.92,1289.13 764.16,1124.02 565.16,1124.02 593.61,1442.3 
					999.7,1555.09 1000,1555 				"/>
			</g>
		</g>
	</g>
</g>
</svg>
