<?xml version="1.0" encoding="UTF-8"?>
<svg id="Calque_1" data-name="Calque 1" xmlns="http://www.w3.org/2000/svg" viewBox="0 0 64 64">
  <defs>
    <style>
      .cls-1 {
        fill: #312c4a;
      }

      .cls-2 {
        fill: #5e8233;
      }

      .cls-3 {
        fill: none;
      }
    </style>
  </defs>
  <path class="cls-2" d="M9.88,32.13c0-8.63,.1-17.27-.05-25.9-.05-2.99,.42-4.46,3.98-4.39,12.12,.22,24.26,.17,36.38,.02,2.97-.04,4.03,.7,4,3.86-.15,17.59-.13,35.19-.01,52.79,.02,2.89-.98,3.64-3.73,3.62-12.29-.12-24.59-.16-36.88,.02-3.31,.05-3.77-1.34-3.73-4.13,.13-8.63,.05-17.26,.05-25.9ZM15.02,4.2c-1.94-.45-3.09-.12-3.09,2.31,.06,16.99,.06,33.99,0,50.98,0,2.44,1.14,2.76,3.09,2.31,11.31,0,22.63,0,33.94,.01,2,.44,3.09-.02,3.08-2.41-.06-16.94-.06-33.87,0-50.81,0-2.4-1.08-2.85-3.08-2.41-11.31,0-22.63,0-33.94,.01Z"/>
  <path class="cls-3" d="M48.96,59.81c-11.31,0-22.63,0-33.94-.01,0-18.54,0-37.07,0-55.61,11.31,0,22.63,0,33.94-.01,0,18.54,0,37.09,0,55.63Zm-17.23-27.1c2.98,0,5.96,.04,8.94-.01,2.12-.04,4.27-.68,4.67-2.93,.83-4.71,1.61-9.8-.29-14.15-1.6-3.66-6.66-4.09-10.01-5.87-5.87-3.12-10.36,3.52-15.78,5.01-.55,.15-.88,1.7-1.03,2.65-2.14,13.32-.43,15.31,13.01,15.31,.17,0,.33,0,.5-.01Zm-14.06,11.7c0,.34,0,.67,0,1.01h28.65c0-.34,0-.67,0-1.01H17.68Zm28.65,8.13c0-.31-.02-.61-.03-.92H17.62c.01,.31,.02,.61,.03,.92h28.67Zm-26.21-15.14c0,.31,.01,.62,.02,.93h23.77c-.01-.31-.02-.62-.03-.93H20.12Z"/>
  <path class="cls-1" d="M15.02,4.2c0,18.54,0,37.07,0,55.61-1.94,.45-3.09,.12-3.09-2.31,.06-16.99,.06-33.99,0-50.98,0-2.44,1.14-2.76,3.09-2.31Z"/>
  <path class="cls-1" d="M48.96,59.81c0-18.54,0-37.09,0-55.63,2-.44,3.09,.02,3.08,2.41-.06,16.94-.06,33.87,0,50.81,0,2.4-1.08,2.85-3.08,2.41Z"/>
  <path class="cls-2" d="M31.74,32.72c-.17,0-.33,0-.5,0-13.45,0-15.15-1.99-13.01-15.31,.15-.95,.48-2.5,1.03-2.65,5.43-1.49,9.91-8.13,15.78-5.01,3.36,1.78,8.42,2.21,10.01,5.87,1.9,4.35,1.11,9.43,.29,14.15-.39,2.25-2.55,2.89-4.67,2.93-2.98,.06-5.96,.01-8.94,.02Zm1.42-2.44c0-.07,0-.13,0-.2,1.65,0,3.33-.18,4.96,.04,4.11,.55,5.15-1.37,4.92-5.13-.34-5.64-2.65,.13-3.84-.77-4.68-3.54-9.47-3.3-14.22-.16-.85,.56-1.17,.01-1.61-.41-3.14-3.06-3.22-.57-3.27,1.82-.09,3.88,1.14,5.97,5.67,4.91,2.35-.55,4.93-.1,7.4-.1Zm-1.59-15.15c-2.8,0-5.6-.02-8.41,0-1.71,.02-2.26,1.08-2.15,2.62,.06,.81,.25,2.11,1.13,1.78,4.3-1.62,8.24,1.49,12.57,.67,1.97-.37,3.53-1.67,5.43-1.7,.93-.01,2.12,2.54,2.69-.2,.41-1.97-.88-3.1-2.86-3.16-2.8-.08-5.6-.02-8.41-.03Z"/>
  <path class="cls-2" d="M17.68,44.41h28.65c0,.34,0,.67,0,1.01H17.68c0-.34,0-.67,0-1.01Z"/>
  <path class="cls-2" d="M46.33,52.54H17.66c-.01-.31-.02-.61-.03-.92h28.68c0,.31,.02,.61,.03,.92Z"/>
  <path class="cls-2" d="M20.12,37.39h23.76c.01,.31,.02,.62,.03,.93H20.14c0-.31-.01-.62-.02-.93Z"/>
  <path class="cls-1" d="M33.16,30.28c-2.48,0-5.06-.45-7.4,.1-4.52,1.06-5.76-1.04-5.67-4.91,.06-2.39,.14-4.88,3.27-1.82,.44,.43,.76,.97,1.61,.41,4.76-3.13,9.54-3.38,14.22,.16,1.19,.9,3.5-4.88,3.84,.77,.23,3.76-.81,5.68-4.92,5.13-1.63-.22-3.3-.04-4.96-.04,0,.07,0,.13,0,.2Z"/>
  <path class="cls-1" d="M31.57,15.13c2.8,0,5.61-.05,8.41,.02,1.97,.05,3.27,1.18,2.86,3.16-.57,2.74-1.76,.19-2.69,.2-1.9,.02-3.46,1.32-5.43,1.7-4.33,.82-8.27-2.29-12.57-.67-.88,.33-1.08-.96-1.13-1.78-.11-1.54,.44-2.6,2.15-2.62,2.8-.03,5.6,0,8.41,0Z"/>
</svg>