<?xml version="1.0" encoding="utf-8"?>
<!-- Generator: Adobe Illustrator 27.0.0, SVG Export Plug-In . SVG Version: 6.00 Build 0)  -->
<svg version="1.1" id="Capa_1" xmlns="http://www.w3.org/2000/svg" xmlns:xlink="http://www.w3.org/1999/xlink" x="0px" y="0px"
	 viewBox="0 0 365 365" style="enable-background:new 0 0 365 365;" xml:space="preserve">
<style type="text/css">
	.st0{fill:#5E8233;}
</style>
<g>
	<g>
		<path class="st0" d="M360.7,155.7l-170-149c-4.7-4.1-11.8-4.1-16.5,0l-170,149c-5.2,4.6-5.7,12.4-1.2,17.6
			c4.6,5.2,12.4,5.7,17.6,1.2L33.9,163v185.9c0,6.9,5.6,12.5,12.5,12.5h94.7h82.7h94.7c6.9,0,12.5-5.6,12.5-12.5V163l13.2,11.5
			c2.4,2.1,5.3,3.1,8.2,3.1c3.5,0,6.9-1.4,9.4-4.3C366.5,168.2,365.9,160.3,360.7,155.7z M153.6,336.4v-103h57.7v103L153.6,336.4
			L153.6,336.4z M306.1,141.2v195.2h-69.7V220.9c0-6.9-5.6-12.5-12.5-12.5h-82.7c-6.9,0-12.5,5.6-12.5,12.5v115.5H58.9V141.2
			c0,0,0-0.1,0-0.1L182.5,32.7L306.1,141.2C306.1,141.1,306.1,141.1,306.1,141.2z"/>
	</g>
</g>
</svg>
