<?xml version="1.0" encoding="utf-8"?>
<!-- Generator: Adobe Illustrator 27.0.0, SVG Export Plug-In . SVG Version: 6.00 Build 0)  -->
<svg version="1.1" id="Calque_1" xmlns="http://www.w3.org/2000/svg" xmlns:xlink="http://www.w3.org/1999/xlink" x="0px" y="0px"
	 viewBox="0 0 24 24" style="enable-background:new 0 0 24 24;" xml:space="preserve">
<style type="text/css">
	.st0{fill-rule:evenodd;clip-rule:evenodd;fill:#FFFFFF;}
</style>
<path class="st0" d="M12.02,0C18.63,0.01,24,5.38,24,12c0,6.62-5.38,12-12,12C5.38,24,0,18.62,0,12C0,5.38,5.37,0.01,11.98,0
	C11.98,0,12.02,0,12.02,0z M15.71,16H8.29c0.64,4.27,2.24,7,3.71,7C13.47,23,15.08,20.27,15.71,16 M22.25,16h-5.52
	c-0.43,2.99-1.32,5.4-2.48,6.77C17.91,22.01,20.91,19.42,22.25,16 M7.28,16H1.75c1.34,3.42,4.34,6.01,8.01,6.77
	C8.6,21.4,7.7,18.99,7.28,16 M7.15,9H1.42c-0.33,1.17-0.74,3.39,0,6h5.74C6.96,13.19,6.94,11.07,7.15,9 M15.84,9H8.16
	c-0.2,1.8-0.22,3.93,0,6h7.68C16.04,13.19,16.07,11.07,15.84,9 M22.59,9h-5.74c0.06,0.59,0.31,3.02,0,6h5.74
	C23.33,12.39,22.92,10.16,22.59,9 M9.76,1.23C6.09,1.99,3.09,4.58,1.75,8h5.52C7.7,5.02,8.6,2.6,9.76,1.23 M15.71,8
	C15.08,3.73,13.47,1,12,1c-1.47,0-3.07,2.73-3.71,7H15.71z M14.24,1.23C15.41,2.6,16.3,5.02,16.73,8h5.52
	C20.91,4.58,17.91,1.99,14.24,1.23"/>
</svg>
