<?xml version="1.0" encoding="UTF-8"?>
<svg id="Calque_1" data-name="Calque 1" xmlns="http://www.w3.org/2000/svg" viewBox="0 0 24 14">
  <defs>
    <style>
      .cls-1 {
        fill: #fff;
      }
    </style>
  </defs>
  <path class="cls-1" d="M11,6V3h1.25c.88,0,1.23,.3,1.83,.91,.45,.47,1.93,2.09,1.93,2.09h-5Zm-1-3h-2.24c-.69,0-1.05,.22-1.38,.58-.32,.35-.89,.95-1.51,1.67,1.72,.64,4.05,.75,5.13,.75V3Zm14,5.16c0-2.82-2.03-3.41-2.79-3.63-1.14-.33-1.65-.48-3.03-.79-.55-.55-2.05-2.04-2.39-2.38l-.09-.09c-.67-.68-1.42-1.27-3.17-1.27H4.88c-.55,0-.79,.46-.25,.94-.53,.46-1.94,1.71-2.34,2.11C.91,4.45,0,5.53,0,7.65c0,2.46,1.36,4.26,3.18,4.33,.41,1.17,1.51,2.01,2.82,2.01s2.4-.84,2.82-2h6.37c.41,1.16,1.51,2,2.82,2s2.41-.84,2.82-2.01c1.93-.06,3.18-1.51,3.18-3.83ZM6,12.2c-.66,0-1.2-.54-1.2-1.2s.54-1.2,1.2-1.2,1.2,.54,1.2,1.2-.54,1.2-1.2,1.2Zm12,0c-.66,0-1.2-.54-1.2-1.2s.54-1.2,1.2-1.2,1.2,.54,1.2,1.2-.54,1.2-1.2,1.2Zm2.83-2.15c-.4-1.19-1.51-2.05-2.83-2.05s-2.44,.87-2.84,2.06h-6.33c-.4-1.19-1.51-2.06-2.84-2.06s-2.43,.86-2.83,2.04c-.59-.11-1.17-1.04-1.17-2.39s.47-1.94,1.71-3.2c.73-.73,1.31-1.21,2.26-2.03,.34-.29,.77-.43,1.22-.43h5.17c1.22,0,1.58,.38,2.12,.89,.42,.39,2.68,2.66,2.68,2.66,0,0,2.3,.55,3.48,.9,.84,.24,1.35,.48,1.35,1.71s-.4,1.83-1.17,1.89Z"/>
</svg>