<?xml version="1.0" encoding="utf-8"?>
<!-- Generator: Adobe Illustrator 27.0.0, SVG Export Plug-In . SVG Version: 6.00 Build 0)  -->
<svg version="1.1" id="Calque_1" xmlns="http://www.w3.org/2000/svg" xmlns:xlink="http://www.w3.org/1999/xlink" x="0px" y="0px"
	 viewBox="0 0 24 24" style="enable-background:new 0 0 24 24;" xml:space="preserve">
<style type="text/css">
	.st0{fill-rule:evenodd;clip-rule:evenodd;fill:#FFFFFF;}
</style>
<path class="st0" d="M18,24H6c-1.1,0-2-0.9-2-2V2c0-1.1,0.9-2,2-2h12c1.1,0,2,0.9,2,2v20C20,23.1,19.1,24,18,24z M19,18.92H5V22
	c0,0.55,0.45,1,1,1h12c0.55,0,1-0.45,1-1V18.92z M12,21.92c-0.55,0-1-0.45-1-1s0.45-1,1-1c0.55,0,1,0.45,1,1S12.55,21.92,12,21.92z
	 M19,4.92H5v13h14V4.92z M18,1H6C5.45,1,5,1.45,5,2v1.92h14V2C19,1.45,18.55,1,18,1z M13.5,2.92h-3c-0.28,0-0.5-0.22-0.5-0.5
	s0.22-0.5,0.5-0.5h3c0.28,0,0.5,0.22,0.5,0.5S13.78,2.92,13.5,2.92z"/>
</svg>
