<?xml version="1.0" encoding="UTF-8"?>
<svg id="Calque_1" data-name="Calque 1" xmlns="http://www.w3.org/2000/svg" viewBox="0 0 385 385">
  <defs>
    <style>
      .cls-1 {
        stroke: #fff;
        stroke-miterlimit: 10;
      }

      .cls-1, .cls-2 {
        fill: none;
      }

      .cls-3 {
        fill: #bababa;
      }

      .cls-4 {
        fill: #5e8233;
      }
    </style>
  </defs>
  <path class="cls-4" d="M107.56,384.44H43.96c-.53-1.37-1.91-.97-2.87-1.21-23.12-5.75-38.18-23.57-39.94-47.38,.05-1.12,.14-2.23,.14-3.35,0-85.23,0-170.45,0-255.68,0-1.99-.08-3.98-.13-5.97,.24-3.99,.92-7.9,2.08-11.73C10.06,36.64,29.47,22.71,54.33,22.61c19.7-.07,39.4-.03,59.09,.01,1.96,0,3.35-.24,4.6-2.19C126.18,7.7,137.99,1.35,153.08,1.34c51.36-.05,102.73-.05,154.09,0,16.02,.02,28.23,6.93,36.31,20.84,.8,1.38,1.73,2.17,3.27,2.68,23.03,7.66,36.27,26.02,36.3,50.39,.04,27.68,.01,55.35,.01,83.03,0,57.97,.03,115.94-.01,173.91-.02,24.29-14.7,43.96-37.34,50.42-2.3,.66-4.8,.56-6.93,1.82H127.02c-2.25-1.25-3.84-2.98-4.14-5.66,1.36-4.64,2.64-5.56,7.83-5.56,66.34,0,132.68,0,199.01,0,25.16,0,42.08-16.79,42.1-41.85,.03-37.53,.02-75.07-.01-112.6,0-2.73-.02-5.52-.5-8.19-3.57-19.94-19.18-33.32-39.47-33.44-30.8-.17-61.6-.07-92.4-.05-19.77,.02-35.02-8.21-45.78-24.82-6.3-9.72-12.6-19.45-19.09-29.05-8.04-11.91-19.3-18.05-33.75-18.06-24.19-.02-48.38,0-72.57,0-1.12,0-2.23,.12-3.35,.18-6.47-.27-13-.79-19.39,.35-19.64,3.51-32.96,19.32-33.08,39.38-.16,25.68-.04,51.36-.04,77.04,0,36.77-.05,73.55,.02,110.32,.04,17.6,8.35,30.13,24.17,37.55,9.26,4.34,19.25,3.25,29.07,3.09,12.82,.04,25.64,.2,38.45,.06,4.26-.05,6.92,1.43,7.93,5.61-.62,2.58-1.89,4.66-4.48,5.69ZM343.08,73.51c4.59,1.33,5.5,2.53,5.51,7.46,.01,27.18,.11,54.37-.11,81.55-.03,4.27,.77,6.66,5.11,8.21,5.54,1.98,10.2,5.69,14.38,9.87,1.09,1.09,2.12,2.25,3.88,4.13,0-2.32,0-3.53,0-4.73,0-14.96,0-29.93,0-44.89-.01-21.07,.29-42.15-.16-63.22-.31-14.57-7.65-25.43-20.07-32.95-2.76-1.67-3.2-.8-3.09,2.01,.19,4.98-.04,9.98,.1,14.96,.11,4.01-1.53,6.41-5.54,7.08-4.51-1.15-5.68-2.62-5.72-7.31-.03-4.86,.06-9.73-.04-14.59-.33-15.79-12.9-28.48-28.72-28.51-52.24-.11-104.47-.09-156.71,0-13.44,.02-24.69,9.18-27.96,22.19-1.33,5.29-.49,10.68-.92,16-.26,3.17,.78,3.85,3.86,3.84,41.14-.11,82.28-.07,123.42-.09,3.75,0,7.47,.23,11.12,1.12,19.24,4.68,31.5,20.52,31.56,40.96,.07,21.94,.07,43.88-.05,65.82-.02,2.82,.71,3.53,3.51,3.49,12.46-.15,24.93-.18,37.4,.06,3.05,.06,3.61-.77,3.6-3.61-.1-27.05-.07-54.1-.06-81.16,0-5.04,1.1-6.49,5.71-7.7Zm-168.4-7.75c-25.81,0-51.62-.04-77.43,.02-15.04,.03-27.08,10.21-29.56,24.49-.54,3.13,.23,3.72,3.22,3.71,22.94-.11,45.88,0,68.82-.08,19.38-.07,34.29,8.03,44.93,24.14,6.58,9.97,13.01,20.05,19.72,29.94,8,11.78,19.32,17.68,33.51,17.83,13.46,.15,26.93-.05,40.4,.1,2.76,.03,3.56-.62,3.54-3.47-.13-21.94-.02-43.89-.08-65.83-.05-18.4-12.64-30.83-31.13-30.84-25.31-.01-50.62,0-75.93,0ZM12.56,111.63c.23,.16,.47,.31,.7,.47,.78-.93,1.5-1.93,2.36-2.79,9.96-10,21.94-15.45,36.12-15.28,3.69,.05,4.47-1.26,4.87-4.53,2.01-16.24,14.11-29.6,29.92-33.65,7.01-1.79,14.12-1.36,21.2-1.25,3.14,.05,4.45-.53,4.21-4.03-.3-4.46-.18-8.99,.21-13.45,.23-2.68-.41-3.41-3.09-3.4-18.33,.1-36.66,.11-54.99,.04-25.62-.1-40.26,18.48-41.34,35.65-.88,14.02-.18,28.13-.18,42.21Z"/>
  <path class="cls-1" d="M338.79,384.44c2.13-1.27,4.63-1.17,6.93-1.82,22.63-6.45,37.32-26.13,37.34-50.42,.05-57.97,.01-115.94,.01-173.91,0-27.68,.03-55.35-.01-83.03-.04-24.37-13.27-42.73-36.3-50.39-1.54-.51-2.47-1.3-3.27-2.68-8.09-13.91-20.3-20.83-36.31-20.84-51.36-.05-102.73-.05-154.09,0-15.09,.01-26.9,6.36-35.07,19.1-1.25,1.94-2.63,2.19-4.6,2.19-19.7-.04-39.4-.09-59.09-.01-24.85,.09-44.27,14.03-51.08,36.51-1.16,3.83-1.83,7.74-2.08,11.73-.21-.09-.41-.07-.61,.05,0-22.56,.03-45.13-.06-67.69C.49,1.07,.83,.5,3.14,.5c126.16,.08,252.32,.07,378.48,0,2.32,0,2.87,.51,2.87,2.86-.07,126.16-.07,252.32,0,378.47,0,2.29-.52,2.68-2.7,2.66-14.34-.12-28.67-.06-43.01-.06Z"/>
  <path class="cls-1" d="M1.15,335.85c1.76,23.81,16.82,41.63,39.94,47.38,.95,.24,2.34-.16,2.87,1.21-13.72,0-27.44-.04-41.16,.05-1.87,.01-2.31-.42-2.29-2.29,.09-15.46,.05-30.93,.05-46.39l.29,.13,.31-.08Z"/>
  <path class="cls-3" d="M1.15,335.85s-.31,.08-.31,.08l-.29-.13V70.91c.2-.12,.4-.14,.61-.05,.04,1.99,.13,3.98,.13,5.97,0,85.23,0,170.45,0,255.68,0,1.12-.09,2.23-.14,3.35Z"/>
  <path class="cls-1" d="M122.88,378.78c.3,2.68,1.88,4.41,4.14,5.66h-19.46c2.59-1.03,3.86-3.1,4.48-5.69,3.61,0,7.22,.02,10.83,.03Z"/>
  <path class="cls-1" d="M122.88,378.78c-3.61,0-7.22-.02-10.83-.03-1.01-4.18-3.67-5.65-7.93-5.61-12.82,.14-25.63-.02-38.45-.06-1.41-2.64-4.22-3.69-6.33-5.53-9.28-8.07-15.1-18.14-15.24-30.35-.4-34.63-.14-69.26-.12-103.9,0-1.3-.49-2.79,.86-3.82,1.68,2.03,3.71,3.06,6.46,3.06,31.05-.06,62.09-.02,93.14-.05,4.34,0,6.84-2.19,6.79-5.72-.04-3.54-2.45-5.48-6.94-5.49-30.92-.01-61.84,.02-92.76-.05-2.87,0-5.09,.78-6.76,3.09-1.46-5.48-1.05-10.98-.21-16.48,1.39,3.01,3.81,3.85,7,3.84,30.91-.07,61.83-.04,92.74-.04,.75,0,1.51,.06,2.24-.08,2.6-.48,4.26-2,4.6-4.68,.37-2.82-.81-4.8-3.41-5.98-1.31-.59-2.68-.49-4.04-.49-30.54,0-61.08,.02-91.62-.05-2.96,0-5.38,.66-7.22,3.04-1.45-1.15-.86-2.76-.87-4.18-.04-18.55-.06-37.1-.01-55.64,.04-14.58,6.58-25.87,17.71-34.87,1.19-.96,2.91-1.54,3.24-3.38,1.12-.06,2.23-.18,3.35-.18,24.19-.01,48.38-.03,72.57,0,14.45,.01,25.7,6.15,33.75,18.06,6.48,9.6,12.79,19.32,19.09,29.05,10.76,16.61,26,24.83,45.78,24.82,30.8-.02,61.6-.13,92.4,.05,20.29,.11,35.9,13.49,39.47,33.44,.48,2.68,.5,5.46,.5,8.19,.03,37.53,.04,75.07,.01,112.6-.02,25.05-16.94,41.85-42.1,41.85-66.34,0-132.68,0-199.01,0-5.19,0-6.47,.93-7.83,5.56Z"/>
  <path class="cls-2" d="M343.08,73.51c-4.61,1.21-5.71,2.66-5.71,7.7,0,27.05-.05,54.1,.06,81.16,.01,2.84-.55,3.67-3.6,3.61-12.46-.24-24.93-.21-37.4-.06-2.8,.03-3.52-.68-3.51-3.49,.12-21.94,.12-43.88,.05-65.82-.06-20.43-12.32-36.27-31.56-40.96-3.65-.89-7.37-1.12-11.12-1.12-41.14,.02-82.28-.03-123.42,.09-3.08,0-4.12-.67-3.86-3.84,.43-5.32-.41-10.7,.92-16,3.27-13.01,14.52-22.17,27.96-22.19,52.24-.08,104.47-.1,156.71,0,15.82,.03,28.39,12.72,28.72,28.51,.1,4.86,.01,9.72,.04,14.59,.03,4.69,1.21,6.16,5.72,7.31,0,3.5,0,7.01,0,10.51Z"/>
  <path class="cls-2" d="M174.68,65.76c25.31,0,50.62,0,75.93,0,18.49,0,31.08,12.44,31.13,30.84,.06,21.94-.04,43.89,.08,65.83,.02,2.86-.78,3.51-3.54,3.47-13.46-.15-26.93,.05-40.4-.1-14.19-.16-25.52-6.05-33.51-17.83-6.71-9.89-13.14-19.96-19.72-29.94-10.63-16.11-25.55-24.21-44.93-24.14-22.94,.08-45.88-.03-68.82,.08-2.99,.01-3.76-.57-3.22-3.71,2.48-14.28,14.52-24.46,29.56-24.49,25.81-.05,51.62-.02,77.43-.02Zm60.97,69.67c-4.67-5.8-9.01-11.22-13.39-16.6-2.75-3.38-5.98-4.05-8.68-1.88-2.72,2.19-2.79,5.44-.06,8.87,5.9,7.41,11.82,14.8,17.79,22.15,3.94,4.86,8.02,4.38,11.04-1.24,3.89-7.23,7.73-14.47,11.59-21.72,3.97-7.46,7.98-14.91,11.86-22.42,1.92-3.72,.48-7.59-3.03-8.45-3.45-.85-5.6,.77-7.19,3.8-6.47,12.33-13.06,24.6-19.92,37.49Z"/>
  <path class="cls-2" d="M44.56,207.85c-.84,5.51-1.25,11.01,.21,16.48-.29,1.72-.3,3.45,.07,5.16-1.35,1.03-.86,2.51-.86,3.82-.02,34.63-.28,69.27,.12,103.9,.14,12.21,5.96,22.28,15.24,30.35,2.11,1.84,4.93,2.89,6.33,5.53-9.82,.16-19.81,1.25-29.07-3.09-15.82-7.42-24.14-19.94-24.17-37.55-.08-36.77-.02-73.55-.02-110.32,0-25.68-.11-51.36,.04-77.04,.12-20.07,13.43-35.88,33.08-39.38,6.39-1.14,12.92-.62,19.39-.35-.33,1.84-2.05,2.42-3.24,3.38-11.13,8.99-17.67,20.29-17.71,34.87-.05,18.55-.02,37.1,.01,55.64,0,1.41-.58,3.03,.87,4.18-.1,1.48-.19,2.96-.29,4.44Z"/>
  <path class="cls-2" d="M12.56,111.63c0-14.07-.7-28.19,.18-42.21,1.08-17.17,15.72-35.75,41.34-35.65,18.33,.07,36.66,.06,54.99-.04,2.68-.01,3.32,.72,3.09,3.4-.39,4.46-.51,8.99-.21,13.45,.24,3.5-1.07,4.08-4.21,4.03-7.08-.11-14.19-.54-21.2,1.25-15.81,4.04-27.91,17.41-29.92,33.65-.4,3.27-1.19,4.57-4.87,4.53-14.18-.18-26.16,5.28-36.12,15.28-.86,.86-1.58,1.85-2.36,2.79-.23-.16-.47-.31-.7-.47Z"/>
  <path class="cls-2" d="M343.08,73.51c0-3.5,0-7.01,0-10.51,4.01-.67,5.66-3.07,5.54-7.08-.14-4.98,.09-9.98-.1-14.96-.11-2.8,.33-3.68,3.09-2.01,12.42,7.53,19.76,18.38,20.07,32.95,.45,21.06,.15,42.15,.16,63.22,0,14.96,0,29.93,0,44.89,0,1.2,0,2.41,0,4.73-1.76-1.88-2.78-3.04-3.88-4.13-4.18-4.18-8.84-7.89-14.38-9.87-4.34-1.55-5.14-3.94-5.11-8.21,.22-27.18,.12-54.37,.11-81.55,0-4.93-.92-6.13-5.51-7.46Z"/>
  <path class="cls-4" d="M44.56,207.85c.1-1.48,.19-2.96,.29-4.44,1.83-2.38,4.26-3.05,7.22-3.04,30.54,.07,61.08,.04,91.62,.05,1.36,0,2.73-.1,4.04,.49,2.6,1.18,3.78,3.16,3.41,5.98-.35,2.68-2,4.2-4.6,4.68-.73,.13-1.49,.08-2.24,.08-30.91,0-61.83-.02-92.74,.04-3.19,0-5.61-.83-7-3.84Z"/>
  <path class="cls-4" d="M44.84,229.49c-.37-1.72-.36-3.44-.07-5.16,1.67-2.31,3.89-3.1,6.76-3.09,30.92,.07,61.84,.04,92.76,.05,4.49,0,6.9,1.94,6.94,5.49,.04,3.53-2.45,5.72-6.79,5.72-31.05,.03-62.09,0-93.14,.05-2.75,0-4.78-1.03-6.46-3.06Z"/>
  <path class="cls-4" d="M235.65,135.43c6.86-12.89,13.45-25.16,19.92-37.49,1.59-3.04,3.75-4.65,7.19-3.8,3.52,.87,4.95,4.73,3.03,8.45-3.87,7.51-7.89,14.96-11.86,22.42-3.85,7.24-7.7,14.49-11.59,21.72-3.02,5.62-7.1,6.1-11.04,1.24-5.97-7.35-11.89-14.74-17.79-22.15-2.73-3.43-2.65-6.68,.06-8.87,2.7-2.17,5.92-1.51,8.68,1.88,4.38,5.38,8.72,10.8,13.39,16.6Z"/>
</svg>