<?xml version="1.0" encoding="utf-8"?>
<!-- Generator: Adobe Illustrator 27.0.0, SVG Export Plug-In . SVG Version: 6.00 Build 0)  -->
<svg version="1.1" id="Calque_1" xmlns="http://www.w3.org/2000/svg" xmlns:xlink="http://www.w3.org/1999/xlink" x="0px" y="0px"
	 viewBox="0 0 385 385" style="enable-background:new 0 0 385 385;" xml:space="preserve">
<style type="text/css">
	.st0{fill:#5E8233;}
	.st1{fill:none;}
</style>
<path class="st0" d="M107.6,384.4H44c-0.5-1.4-1.9-1-2.9-1.2C18,377.5,2.9,359.7,1.2,335.9c0-1.1,0.1-2.2,0.1-3.4
	c0-85.2,0-170.5,0-255.7c0-2-0.1-4-0.1-6c0.2-4,0.9-7.9,2.1-11.7c6.8-22.5,26.2-36.4,51.1-36.5c19.7-0.1,39.4,0,59.1,0
	c2,0,3.3-0.2,4.6-2.2c8.2-12.7,20-19.1,35.1-19.1c51.4,0,102.7,0,154.1,0c16,0,28.2,6.9,36.3,20.8c0.8,1.4,1.7,2.2,3.3,2.7
	c23,7.7,36.3,26,36.3,50.4c0,27.7,0,55.4,0,83c0,58,0,115.9,0,173.9c0,24.3-14.7,44-37.3,50.4c-2.3,0.7-4.8,0.6-6.9,1.8H127
	c-2.2-1.2-3.8-3-4.1-5.7c1.4-4.6,2.6-5.6,7.8-5.6c66.3,0,132.7,0,199,0c25.2,0,42.1-16.8,42.1-41.9c0-37.5,0-75.1,0-112.6
	c0-2.7,0-5.5-0.5-8.2c-3.6-19.9-19.2-33.3-39.5-33.4c-30.8-0.2-61.6-0.1-92.4-0.1c-19.8,0-35-8.2-45.8-24.8
	c-6.3-9.7-12.6-19.4-19.1-29.1c-8-11.9-19.3-18.1-33.8-18.1c-24.2,0-48.4,0-72.6,0c-1.1,0-2.2,0.1-3.3,0.2c-6.5-0.3-13-0.8-19.4,0.3
	c-19.6,3.5-33,19.3-33.1,39.4c-0.2,25.7,0,51.4,0,77c0,36.8-0.1,73.6,0,110.3c0,17.6,8.4,30.1,24.2,37.5c9.3,4.3,19.2,3.2,29.1,3.1
	c12.8,0,25.6,0.2,38.4,0.1c4.3,0,6.9,1.4,7.9,5.6C111.4,381.3,110.1,383.4,107.6,384.4L107.6,384.4z M343.1,73.5
	c4.6,1.3,5.5,2.5,5.5,7.5c0,27.2,0.1,54.4-0.1,81.6c0,4.3,0.8,6.7,5.1,8.2c5.5,2,10.2,5.7,14.4,9.9c1.1,1.1,2.1,2.2,3.9,4.1
	c0-2.3,0-3.5,0-4.7c0-15,0-29.9,0-44.9c0-21.1,0.3-42.2-0.2-63.2c-0.3-14.6-7.6-25.4-20.1-33c-2.8-1.7-3.2-0.8-3.1,2
	c0.2,5,0,10,0.1,15c0.1,4-1.5,6.4-5.5,7.1c-4.5-1.2-5.7-2.6-5.7-7.3c0-4.9,0.1-9.7,0-14.6c-0.3-15.8-12.9-28.5-28.7-28.5
	c-52.2-0.1-104.5-0.1-156.7,0c-13.4,0-24.7,9.2-28,22.2c-1.3,5.3-0.5,10.7-0.9,16c-0.3,3.2,0.8,3.8,3.9,3.8
	c41.1-0.1,82.3-0.1,123.4-0.1c3.8,0,7.5,0.2,11.1,1.1c19.2,4.7,31.5,20.5,31.6,41c0.1,21.9,0.1,43.9,0,65.8c0,2.8,0.7,3.5,3.5,3.5
	c12.5-0.1,24.9-0.2,37.4,0.1c3,0.1,3.6-0.8,3.6-3.6c-0.1-27.1-0.1-54.1-0.1-81.2C337.4,76.2,338.5,74.7,343.1,73.5L343.1,73.5z
	 M174.7,65.8c-25.8,0-51.6,0-77.4,0c-15,0-27.1,10.2-29.6,24.5c-0.5,3.1,0.2,3.7,3.2,3.7c22.9-0.1,45.9,0,68.8-0.1
	c19.4-0.1,34.3,8,44.9,24.1c6.6,10,13,20.1,19.7,29.9c8,11.8,19.3,17.7,33.5,17.8c13.5,0.1,26.9-0.1,40.4,0.1c2.8,0,3.6-0.6,3.5-3.5
	c-0.1-21.9,0-43.9-0.1-65.8c0-18.4-12.6-30.8-31.1-30.8C225.3,65.8,200,65.8,174.7,65.8L174.7,65.8z M12.6,111.6
	c0.2,0.2,0.5,0.3,0.7,0.5c0.8-0.9,1.5-1.9,2.4-2.8c10-10,21.9-15.4,36.1-15.3c3.7,0.1,4.5-1.3,4.9-4.5c2-16.2,14.1-29.6,29.9-33.7
	c7-1.8,14.1-1.4,21.2-1.2c3.1,0,4.4-0.5,4.2-4c-0.3-4.5-0.2-9,0.2-13.5c0.2-2.7-0.4-3.4-3.1-3.4c-18.3,0.1-36.7,0.1-55,0
	c-25.6-0.1-40.3,18.5-41.3,35.7C11.8,83.4,12.5,97.5,12.6,111.6L12.6,111.6z"/>
<path class="st1" d="M343.1,73.5c-4.6,1.2-5.7,2.7-5.7,7.7c0,27,0,54.1,0.1,81.2c0,2.8-0.5,3.7-3.6,3.6c-12.5-0.2-24.9-0.2-37.4-0.1
	c-2.8,0-3.5-0.7-3.5-3.5c0.1-21.9,0.1-43.9,0-65.8c-0.1-20.4-12.3-36.3-31.6-41c-3.6-0.9-7.4-1.1-11.1-1.1c-41.1,0-82.3,0-123.4,0.1
	c-3.1,0-4.1-0.7-3.9-3.8c0.4-5.3-0.4-10.7,0.9-16c3.3-13,14.5-22.2,28-22.2c52.2-0.1,104.5-0.1,156.7,0c15.8,0,28.4,12.7,28.7,28.5
	c0.1,4.9,0,9.7,0,14.6c0,4.7,1.2,6.2,5.7,7.3C343.1,66.5,343.1,70,343.1,73.5z"/>
<path class="st1" d="M174.7,65.8c25.3,0,50.6,0,75.9,0c18.5,0,31.1,12.4,31.1,30.8c0.1,21.9,0,43.9,0.1,65.8c0,2.9-0.8,3.5-3.5,3.5
	c-13.5-0.1-26.9,0.1-40.4-0.1c-14.2-0.2-25.5-6.1-33.5-17.8c-6.7-9.9-13.1-20-19.7-29.9c-10.6-16.1-25.6-24.2-44.9-24.1
	c-22.9,0.1-45.9,0-68.8,0.1c-3,0-3.8-0.6-3.2-3.7C70.2,76,82.2,65.8,97.2,65.8C123,65.7,148.9,65.7,174.7,65.8L174.7,65.8z
	 M235.6,135.4c-4.7-5.8-9-11.2-13.4-16.6c-2.8-3.4-6-4.1-8.7-1.9c-2.7,2.2-2.8,5.4-0.1,8.9c5.9,7.4,11.8,14.8,17.8,22.2
	c3.9,4.9,8,4.4,11-1.2c3.9-7.2,7.7-14.5,11.6-21.7c4-7.5,8-14.9,11.9-22.4c1.9-3.7,0.5-7.6-3-8.4c-3.5-0.8-5.6,0.8-7.2,3.8
	C249.1,110.3,242.5,122.5,235.6,135.4L235.6,135.4z"/>
<path class="st1" d="M12.6,111.6c0-14.1-0.7-28.2,0.2-42.2c1.1-17.2,15.7-35.8,41.3-35.7c18.3,0.1,36.7,0.1,55,0
	c2.7,0,3.3,0.7,3.1,3.4c-0.4,4.5-0.5,9-0.2,13.5c0.2,3.5-1.1,4.1-4.2,4c-7.1-0.1-14.2-0.5-21.2,1.2c-15.8,4-27.9,17.4-29.9,33.6
	c-0.4,3.3-1.2,4.6-4.9,4.5c-14.2-0.2-26.2,5.3-36.1,15.3c-0.9,0.9-1.6,1.8-2.4,2.8C13,111.9,12.8,111.8,12.6,111.6L12.6,111.6z"/>
<path class="st0" d="M44.6,207.8c0.1-1.5,0.2-3,0.3-4.4c1.8-2.4,4.3-3.1,7.2-3c30.5,0.1,61.1,0,91.6,0.1c1.4,0,2.7-0.1,4,0.5
	c2.6,1.2,3.8,3.2,3.4,6c-0.4,2.7-2,4.2-4.6,4.7c-0.7,0.1-1.5,0.1-2.2,0.1c-30.9,0-61.8,0-92.7,0C48.4,211.7,45.9,210.9,44.6,207.8
	L44.6,207.8z"/>
<path class="st0" d="M44.8,229.5c-0.4-1.7-0.4-3.4-0.1-5.2c1.7-2.3,3.9-3.1,6.8-3.1c30.9,0.1,61.8,0,92.8,0.1c4.5,0,6.9,1.9,6.9,5.5
	c0,3.5-2.4,5.7-6.8,5.7c-31.1,0-62.1,0-93.1,0.1C48.6,232.6,46.5,231.5,44.8,229.5L44.8,229.5z"/>
<path class="st0" d="M235.6,135.4c6.9-12.9,13.4-25.2,19.9-37.5c1.6-3,3.8-4.7,7.2-3.8c3.5,0.9,5,4.7,3,8.4
	c-3.9,7.5-7.9,15-11.9,22.4c-3.9,7.2-7.7,14.5-11.6,21.7c-3,5.6-7.1,6.1-11,1.2c-6-7.4-11.9-14.7-17.8-22.2
	c-2.7-3.4-2.6-6.7,0.1-8.9c2.7-2.2,5.9-1.5,8.7,1.9C226.6,124.2,231,129.6,235.6,135.4L235.6,135.4z"/>
</svg>
