<?xml version="1.0" encoding="UTF-8"?>
<svg id="Calque_1" data-name="Calque 1" xmlns="http://www.w3.org/2000/svg" viewBox="0 0 512 511.99">
  <defs>
    <style>
      .cls-1 {
        stroke: #5e8233;
        stroke-miterlimit: 10;
      }

      .cls-1, .cls-2 {
        fill: none;
      }

      .cls-3 {
        fill: #5e8233;
      }
    </style>
  </defs>
  <path class="cls-2" d="M511.91,256.51c0,83.78-.02,167.55,.09,251.33,0,3.32-.52,4.15-4.04,4.14-167.9-.11-335.8-.12-503.7,.01-3.82,0-4.25-1.05-4.25-4.44C.1,339.84,.1,172.12,0,4.4,0,.92,.56,0,4.29,0,172.02,.12,339.76,.12,507.49,0c3.93,0,4.51,1.08,4.5,4.68-.11,83.94-.09,167.89-.09,251.83h.01ZM255.78,105.48c-83.13,.32-150.85,68.28-150.32,150.86,.53,83.08,67.72,150.13,150.51,150.19,82.87,.06,150.75-67.84,150.58-150.62-.17-83.05-68.02-150.74-150.76-150.42h0Zm165.19-6.15c0,9.34-.05,17.29,.02,25.24,.04,4.75,2.48,7.73,6.18,7.39,4.26-.4,5.84-3.18,5.83-7.25-.04-12.82,.05-25.64,0-38.46-.02-5.16-2.07-7.1-7.35-7.17-5.33-.07-10.66-.02-15.98-.01-7.66,0-15.32-.02-22.98,.02-3.89,.02-6.54,1.88-6.61,5.88-.07,4,2.48,5.95,6.4,6.08,1.83,.06,3.66,.02,5.49,.02h20.97c-2.68,2.48-4.31,3.89-5.83,5.4-10.38,10.34-20.73,20.71-31.1,31.06-2.88,2.88-3.77,6.15-.74,9.2,3.03,3.04,6.32,2.22,9.19-.69,.94-.95,1.89-1.88,2.83-2.82,10.91-10.97,21.81-21.94,33.69-33.89h0Zm-321.31-8.27c9.19,0,17.44,.05,25.68-.02,3.97-.03,6.43-2.24,6.39-6.13-.04-3.63-2.46-5.79-6.19-5.81-13.49-.07-26.98-.07-40.47,0-3.46,.02-5.93,1.91-5.97,5.42-.15,13.99-.15,27.98,.05,41.96,.05,3.43,2.47,5.48,5.95,5.46,3.25,0,5.21-2.05,5.8-5.17,.3-1.61,.12-3.32,.13-4.98v-22.5c8.65,8.74,16.34,16.51,24.04,24.28,4.22,4.26,8.46,8.5,12.72,12.72,2.75,2.73,5.93,3.39,8.83,.61,3.1-2.98,2.43-6.26-.44-9.19-1.16-1.19-2.35-2.36-3.52-3.54-10.76-10.8-21.53-21.59-33.01-33.1h0ZM420.96,411.29l-1.5,1.04c-.88-1.36-1.56-2.93-2.68-4.06-10.44-10.53-20.94-20.99-31.45-31.45-4.06-4.05-7.5-4.52-10.3-1.51-2.68,2.88-2.16,6.02,1.76,9.95,10.71,10.73,21.46,21.42,32.14,32.17,.94,.94,2.57,1.54,2.42,3.5-7.91,0-15.72-.04-23.53,.01-4.79,.03-7.64,2.31-7.65,5.97-.02,3.66,2.83,5.98,7.63,6,12.49,.05,24.99,.04,37.48,0,5.86-.02,7.72-1.89,7.73-7.79,.03-12.33,0-24.65-.03-36.98-.02-5.34-2.08-8.13-5.92-8.16-3.86-.03-6.04,2.81-6.07,8.06-.03,7.75,0,15.5,0,23.25h-.03Zm-329.93,1.27c0-8.95,.02-16.7,0-24.45-.02-5.34-2.11-8.12-5.99-8.14-3.86-.02-5.98,2.79-6,8.09-.04,12.16-.05,24.31-.04,36.47,0,6.63,1.69,8.37,8.16,8.38,12.16,.03,24.31,.02,36.47,0,5.6-.01,8.52-2.21,8.38-6.21-.14-3.84-2.85-5.76-8.3-5.78-7.72-.02-15.44,0-24.23,0,8.34-8.32,15.86-15.81,23.37-23.3,4.48-4.47,8.97-8.93,13.42-13.43,2.72-2.75,3.4-5.94,.6-8.84-2.99-3.1-6.26-2.42-9.19,.47-1.66,1.64-3.3,3.29-4.95,4.94-10.29,10.32-20.58,20.64-31.7,31.8h0ZM250,28.62c0,17.76-.02,34.34,0,50.92,0,5.28,2.17,8.07,6.16,7.79,4.7-.33,5.87-3.47,5.86-7.65-.06-15.31-.05-30.61,.01-45.92,0-1.38-.61-2.92,.76-4.45,5.68,5.72,11.3,11.34,16.86,17.02,2.82,2.88,5.84,3.92,9.2,1.11,2.97-2.49,2.73-6.07-.7-9.55-8.99-9.13-18.02-18.22-27.13-27.22-3.73-3.69-6.44-3.59-10.29,.23-8.98,8.91-17.89,17.87-26.78,26.87-3.5,3.54-3.86,6.96-.97,9.53,3.52,3.13,6.63,1.81,9.56-1.17,5.48-5.58,11.03-11.08,17.43-17.51h.03ZM28.64,249.99c6.68-6.67,12.48-12.41,18.21-18.22,2.76-2.8,3.13-5.95,.25-8.81-2.69-2.67-5.81-2.46-8.44,.13-9.61,9.46-19.15,19-28.66,28.57-2.46,2.47-2.87,5.62-.47,8.08,9.77,10.01,19.69,19.87,29.73,29.61,2.48,2.4,5.61,2.12,8.05-.41,2.43-2.53,2.36-5.4,.13-8.09-1.06-1.28-2.3-2.4-3.48-3.58-4.86-4.86-9.72-9.71-15.3-15.29h6.05c14.99,0,29.98-.04,44.97,.03,4.17,.02,7.33-1.14,7.67-5.85,.28-4-2.51-6.14-7.8-6.18-4.66-.03-9.33,0-13.99,0H28.64Zm453.69,12.01c0,.67,.06,.88,0,.95-5.39,5.43-10.81,10.84-16.19,16.28-3.75,3.8-4.26,7.26-1.3,9.89,3.54,3.14,6.64,1.75,9.57-1.19,8.81-8.84,17.7-17.6,26.49-26.46,4.19-4.22,4.17-6.74-.06-11-8.67-8.74-17.41-17.42-26.15-26.09-3.86-3.83-7.13-4.26-9.94-1.47-2.79,2.77-2.33,6.1,1.44,9.92,5.43,5.51,10.9,10.98,17.05,17.17h-4.71c-15.64,0-31.29-.05-46.93,.03-5.43,.03-8.5,4.11-6.49,8.44,1.38,2.97,4,3.58,7.06,3.57,16.64-.06,33.28-.03,50.16-.03h0Zm-232.34,221.37c-6.31-6.33-11.77-11.86-17.29-17.33-3.76-3.72-7.29-4.17-9.89-1.17-3.11,3.59-1.61,6.65,1.32,9.57,8.73,8.69,17.37,17.45,26.09,26.14,4.6,4.59,7.03,4.55,11.73-.15,8.6-8.58,17.17-17.18,25.71-25.82,3.8-3.84,4.21-7.15,1.38-9.94-2.79-2.74-6.08-2.26-9.92,1.53-5.5,5.42-10.96,10.88-17.12,17v-4.77c0-15.47,.04-30.95-.02-46.42-.02-6.02-4.48-9.3-8.95-6.7-2.61,1.52-3.08,4.04-3.07,6.88,.06,16.63,.03,33.26,.03,51.17h0Z"/>
  <path class="cls-3" d="M255.78,105.48c82.74-.32,150.59,67.37,150.76,150.42,.17,82.78-67.7,150.68-150.58,150.62-82.79-.06-149.98-67.1-150.51-150.19-.53-82.57,67.19-150.53,150.32-150.86h.01Zm.32,288.76c76,.82,138.44-62.93,138.32-138.46-.12-75.44-62.6-138.13-138.28-138.19-75.52-.06-138.57,62.38-138.58,138.39,0,76.04,63.04,139.17,138.53,138.25h0Z"/>
  <path class="cls-3" d="M420.97,99.34c-11.88,11.95-22.78,22.92-33.69,33.89-.94,.94-1.89,1.88-2.83,2.82-2.87,2.91-6.16,3.72-9.19,.69-3.03-3.05-2.15-6.32,.74-9.2,10.37-10.35,20.72-20.72,31.1-31.06,1.52-1.52,3.15-2.93,5.83-5.4h-20.97c-1.83,0-3.66,.04-5.49-.02-3.91-.13-6.47-2.08-6.4-6.08s2.72-5.87,6.61-5.88c7.66-.04,15.32-.02,22.98-.02,5.33,0,10.66-.05,15.98,.01,5.27,.07,7.32,2.01,7.35,7.17,.05,12.82-.03,25.64,0,38.46,.01,4.07-1.57,6.85-5.83,7.25-3.69,.35-6.14-2.64-6.18-7.39-.07-7.95-.02-15.9-.02-25.24h0Z"/>
  <path class="cls-3" d="M99.65,91.06c11.48,11.51,22.25,22.31,33.01,33.1,1.18,1.18,2.36,2.35,3.52,3.54,2.87,2.94,3.54,6.21,.44,9.19-2.9,2.78-6.08,2.12-8.83-.61-4.26-4.22-8.49-8.46-12.72-12.72-7.7-7.76-15.39-15.54-24.04-24.28v22.5c0,1.66,.18,3.37-.13,4.98-.58,3.11-2.54,5.16-5.8,5.17-3.47,0-5.9-2.04-5.95-5.46-.2-13.99-.2-27.98-.05-41.96,.04-3.51,2.51-5.4,5.97-5.42,13.49-.07,26.98-.07,40.47,0,3.73,.02,6.14,2.17,6.19,5.81,.05,3.89-2.42,6.1-6.39,6.13-8.24,.07-16.49,.02-25.68,.02h-.01Z"/>
  <path class="cls-3" d="M420.96,411.29c0-7.75-.03-15.5,0-23.25,.02-5.25,2.2-8.09,6.07-8.06,3.85,.03,5.91,2.82,5.92,8.16,.04,12.33,.06,24.65,.03,36.98-.01,5.9-1.87,7.77-7.73,7.79-12.49,.04-24.99,.04-37.48,0-4.79-.02-7.64-2.35-7.63-6,.02-3.66,2.86-5.94,7.65-5.97,7.81-.05,15.63-.01,23.53-.01,.15-1.95-1.48-2.55-2.42-3.5-10.68-10.76-21.43-21.44-32.14-32.17-3.92-3.93-4.44-7.07-1.76-9.95,2.8-3.01,6.24-2.53,10.3,1.51,10.51,10.46,21.01,20.92,31.45,31.45,1.12,1.13,1.8,2.69,2.68,4.06l1.5-1.04h.03Z"/>
  <path class="cls-3" d="M91.03,412.56c11.12-11.16,21.41-21.48,31.7-31.8,1.65-1.65,3.29-3.3,4.95-4.94,2.92-2.89,6.2-3.57,9.19-.47,2.8,2.9,2.12,6.09-.6,8.84-4.45,4.5-8.94,8.96-13.42,13.43-7.51,7.49-15.02,14.98-23.37,23.3,8.79,0,16.51-.02,24.23,0,5.45,.02,8.16,1.94,8.3,5.78,.14,4-2.78,6.2-8.38,6.21-12.16,.02-24.32,.03-36.47,0-6.47-.02-8.15-1.75-8.16-8.38-.01-12.16,0-24.31,.04-36.47,.02-5.3,2.14-8.11,6-8.09,3.88,.02,5.97,2.8,5.99,8.14,.03,7.75,0,15.5,0,24.45Z"/>
  <path class="cls-3" d="M250,28.62c-6.41,6.42-11.96,11.93-17.43,17.51-2.93,2.98-6.04,4.31-9.56,1.17-2.89-2.57-2.53-5.99,.97-9.53,8.88-9,17.8-17.96,26.78-26.87,3.85-3.82,6.56-3.91,10.29-.23,9.11,9,18.14,18.09,27.13,27.22,3.43,3.48,3.66,7.06,.7,9.55-3.36,2.82-6.39,1.77-9.2-1.11-5.56-5.68-11.18-11.29-16.86-17.02-1.38,1.53-.76,3.08-.76,4.45-.06,15.31-.07,30.61-.01,45.92,.02,4.17-1.15,7.32-5.86,7.65-4,.28-6.16-2.51-6.16-7.79-.03-16.58,0-33.17,0-50.92h-.03Z"/>
  <path class="cls-3" d="M28.64,249.99h36.9c4.66,0,9.33-.03,13.99,0,5.29,.04,8.08,2.17,7.8,6.18-.33,4.71-3.49,5.87-7.67,5.85-14.99-.06-29.98-.03-44.97-.03h-6.05c5.58,5.57,10.45,10.43,15.3,15.29,1.18,1.18,2.42,2.3,3.48,3.58,2.23,2.69,2.3,5.56-.13,8.09s-5.57,2.81-8.05,.41c-10.04-9.74-19.96-19.6-29.73-29.61-2.4-2.46-1.99-5.61,.47-8.08,9.51-9.57,19.05-19.1,28.66-28.57,2.63-2.59,5.75-2.8,8.44-.13,2.88,2.86,2.51,6.01-.25,8.81-5.73,5.81-11.53,11.55-18.21,18.22h.02Z"/>
  <path class="cls-3" d="M482.33,262c-16.88,0-33.52-.03-50.16,.03-3.06,.01-5.69-.6-7.06-3.57-2.01-4.33,1.06-8.41,6.49-8.44,15.64-.08,31.29-.03,46.93-.03h4.71c-6.15-6.19-11.62-11.66-17.05-17.17-3.77-3.82-4.22-7.15-1.44-9.92,2.81-2.79,6.08-2.36,9.94,1.47,8.75,8.67,17.48,17.35,26.15,26.09,4.22,4.26,4.24,6.78,.06,11-8.79,8.86-17.68,17.62-26.49,26.46-2.93,2.94-6.04,4.33-9.57,1.19-2.96-2.63-2.45-6.09,1.3-9.89,5.38-5.45,10.8-10.85,16.19-16.28,.07-.07,0-.27,0-.95h0Z"/>
  <path class="cls-3" d="M250,483.38c0-17.91,.03-34.54-.03-51.17,0-2.84,.46-5.36,3.07-6.88,4.47-2.61,8.92,.68,8.95,6.7,.06,15.47,.02,30.95,.02,46.42v4.77c6.16-6.12,11.63-11.57,17.12-17,3.84-3.78,7.13-4.27,9.92-1.53,2.83,2.79,2.42,6.1-1.38,9.94-8.54,8.63-17.12,17.24-25.71,25.82-4.71,4.7-7.13,4.73-11.73,.15-8.72-8.69-17.36-17.46-26.09-26.14-2.93-2.91-4.42-5.98-1.32-9.57,2.6-3,6.13-2.55,9.89,1.17,5.52,5.46,10.98,10.99,17.29,17.33h0Z"/>
  <path class="cls-1" d="M256.1,394.22c-75.49,.91-138.54-62.22-138.53-138.25,0-76.01,63.07-138.46,138.58-138.39,75.67,.06,138.16,62.75,138.28,138.19,.12,75.53-62.32,139.28-138.32,138.46h-.01Zm0-45.28c21.82,0,43.64,.01,65.46,0,13.01,0,20.39-7.4,20.41-20.43,.02-18.16,0-36.31,0-54.47,0-2.15-.16-4.07,2.31-5.48,4.94-2.82,6.71-7.54,6.7-13.09-.03-14.82,.08-29.65-.04-44.47-.11-13.25-9.9-22.88-23.18-22.98-8.16-.06-16.33-.12-24.49,.04-3.05,.06-4.26-.56-4.41-4.03-.51-11.77-10.03-20.83-21.88-20.97-13.99-.17-27.99-.17-41.98,0-11.86,.15-21.36,9.22-21.86,21-.15,3.5-1.42,4.06-4.43,4-8.33-.16-16.66-.13-24.99-.03-12.64,.15-22.51,9.84-22.64,22.48-.16,14.82-.06,29.65-.03,44.47,0,5.12,1.79,9.64,6.02,12.56,2.63,1.82,3.02,3.88,3.01,6.71-.09,18.15-.06,36.31-.04,54.47,0,12.73,7.44,20.21,20.1,20.22,21.99,.02,43.98,0,65.96,0h0Z"/>
  <path class="cls-3" d="M256.09,348.96c-21.99,0-43.98,.02-65.96,0-12.66-.01-20.08-7.49-20.1-20.22-.02-18.16-.05-36.31,.04-54.47,0-2.83-.38-4.89-3.01-6.71-4.23-2.92-6.01-7.44-6.02-12.56-.03-14.82-.13-29.65,.03-44.47,.14-12.64,10-22.33,22.64-22.48,8.33-.1,16.66-.12,24.99,.03,3.01,.06,4.29-.5,4.43-4,.49-11.77,10-20.85,21.86-21,13.99-.17,27.99-.17,41.98,0,11.86,.14,21.37,9.2,21.88,20.97,.15,3.46,1.36,4.09,4.41,4.03,8.16-.17,16.32-.1,24.49-.04,13.28,.1,23.08,9.73,23.18,22.98,.12,14.82,0,29.65,.04,44.47,.01,5.54-1.75,10.27-6.7,13.09-2.48,1.41-2.31,3.33-2.31,5.48,0,18.16,.01,36.31,0,54.47-.01,13.02-7.4,20.42-20.41,20.43-21.82,.01-43.64,0-65.46,0h0Zm0-148.93c-23.47,0-46.94-.02-70.41,0-8.58,0-12.59,3.94-12.63,12.44-.06,13.32,.1,26.63-.09,39.95-.06,4.16,1.39,6.43,5.42,7.62,16.73,4.93,33.42,9.97,50.07,15.16,2.91,.91,3.63,.55,3.64-2.57,.02-6.02,1.8-7.62,7.78-7.63,10.99-.03,21.97,.03,32.96-.03,4.7-.02,7.33,2.05,7.11,6.86-.13,2.96,.63,3.75,3.62,2.84,17.17-5.2,34.36-10.31,51.59-15.28,2.96-.85,3.9-2.3,3.87-5.29-.13-13.81-.02-27.63-.07-41.44-.03-8.78-4.01-12.63-12.95-12.63-23.3-.02-46.61,0-69.91,0h0Zm73.87,73.95c-.99,.04-1.68-.06-2.29,.12-14.99,4.38-29.95,8.87-44.97,13.14-2.93,.83-2.65,2.73-2.76,4.9-.67,12.99-10.83,22.86-23.62,23.03-12.84,.18-23.45-9.42-24.16-22.33-.18-3.29-1.31-4.53-4.29-5.41-13.87-4.06-27.72-8.22-41.48-12.63-3.58-1.15-4.49-.66-4.45,3.2,.18,16.48,.07,32.96,.08,49.45,0,7.84,1.72,9.51,9.75,9.51h91.91c12.82,0,25.64-.03,38.46,.02,4.49,.02,7.7-1.72,7.74-6.48,.15-18.8,.06-37.59,.06-56.53h.02Zm-74.46-85.94c8.64,0,17.27,.07,25.91-.05,1.81-.03,4.34,1.14,5.32-1.14,.94-2.19,.17-4.64-1.17-6.63-2.04-3.03-4.8-5.12-8.63-5.13-13.95-.04-27.9-.11-41.85,.03-5.08,.05-9.38,4.13-10.01,8.78-.36,2.7,.04,4.3,3.52,4.21,8.96-.23,17.93-.08,26.9-.08h.01Zm-11.49,98.05c0,1.66-.05,3.32,0,4.98,.26,7.18,5.08,12.09,11.84,12.08,6.76,0,11.82-4.92,12.1-11.93,.15-3.65-.12-7.31,.09-10.96,.16-2.75-1.02-3.39-3.5-3.29-3.81,.15-7.64,.04-11.46,.04-6.05,0-9.08,3.03-9.08,9.08h.01Z"/>
  <path class="cls-1" d="M256.09,200.02c23.3,0,46.61,0,69.91,0,8.95,0,12.92,3.86,12.95,12.63,.05,13.81-.06,27.63,.07,41.44,.03,2.99-.91,4.43-3.87,5.29-17.23,4.97-34.43,10.09-51.59,15.28-3,.91-3.76,.12-3.62-2.84,.22-4.81-2.42-6.88-7.11-6.86-10.99,.06-21.97,0-32.96,.03-5.98,.02-7.77,1.61-7.78,7.63,0,3.11-.72,3.48-3.64,2.57-16.65-5.19-33.34-10.23-50.07-15.16-4.04-1.19-5.48-3.46-5.42-7.62,.19-13.31,.03-26.63,.09-39.95,.04-8.5,4.05-12.44,12.63-12.44,23.47-.02,46.94,0,70.41,0h0Z"/>
  <path class="cls-1" d="M329.95,273.97c0,18.94,.09,37.73-.06,56.53-.04,4.76-3.25,6.49-7.74,6.48-12.82-.05-25.64-.02-38.46-.02h-91.91c-8.04,0-9.75-1.67-9.75-9.51,0-16.48,.1-32.97-.08-49.45-.04-3.86,.87-4.34,4.45-3.2,13.76,4.41,27.61,8.57,41.48,12.63,2.98,.87,4.1,2.11,4.29,5.41,.71,12.91,11.32,22.51,24.16,22.33,12.79-.18,22.95-10.05,23.62-23.03,.11-2.17-.17-4.07,2.76-4.9,15.02-4.27,29.98-8.76,44.97-13.14,.61-.18,1.3-.08,2.29-.12h-.02Z"/>
  <path class="cls-1" d="M255.49,188.03c-8.97,0-17.94-.16-26.9,.08-3.47,.09-3.88-1.51-3.52-4.21,.63-4.65,4.93-8.73,10.01-8.78,13.95-.15,27.9-.08,41.85-.03,3.82,0,6.58,2.1,8.63,5.13,1.34,2,2.11,4.45,1.17,6.63-.98,2.28-3.51,1.11-5.32,1.14-8.63,.12-17.27,.05-25.91,.05h0Z"/>
</svg>