<?xml version="1.0" encoding="UTF-8"?>
<svg id="Calque_1" data-name="Calque 1" xmlns="http://www.w3.org/2000/svg" viewBox="0 0 2500 2500">
  <defs>
    <style>
      .cls-1, .cls-2 {
        fill: #fff;
      }

      .cls-2, .cls-3, .cls-4, .cls-5 {
        fill-rule: evenodd;
      }

      .cls-6, .cls-3 {
        fill: #cc2229;
      }

      .cls-4 {
        fill: none;
      }

      .cls-5 {
        fill: #33348e;
      }
    </style>
  </defs>
  <path class="cls-4" d="M0,0H2500V2500H0V0Z"/>
  <path class="cls-2" d="M2389.71,1940.52V559.45H110.29V1940.52H2389.71Z"/>
  <path class="cls-5" d="M2389.71,1940.52V559.45H110.29V1940.52H2389.71Z"/>
  <path class="cls-2" d="M1514.22,1940.52v-481.85h875.49v-417.37h-875.49v-481.85H973.48v481.85H110.29v417.37H973.48v481.85h540.74Z"/>
  <path class="cls-1" d="M387.89,559.45l2001.82,1212.95v168.15h-272.65L110.29,724.61v-165.16H387.89Z"/>
  <path class="cls-1" d="M2112.13,559.45L110.29,1772.4v168.15H382.96L2389.71,724.61v-165.16h-277.58Z"/>
  <path class="cls-3" d="M2389.71,1116.77h-974.83V559.45h-328.81v557.32H110.29v266.42h975.77v557.32h328.81v-557.32h974.83v-266.42Z"/>
  <path class="cls-6" d="M111.33,559.45l791.87,481.85h-177.72L110.29,666.96v-107.51h1.04Zm-1.04,1378.67v2.43h173.72l689.47-419.55v-62.33h-75.29L110.29,1938.12Zm2279.41,2.43v-100.67l-626.48-381.21h-177.72l791.92,481.88h12.28Zm-187.91-1381.1l-687.58,418.4v63.45h73.43l791.87-481.85h-177.72Z"/>
</svg>