<?xml version="1.0" encoding="UTF-8"?>
<svg id="html5" xmlns="http://www.w3.org/2000/svg" xmlns:xlink="http://www.w3.org/1999/xlink" viewBox="0 0 1886.31 1884.57">
  <defs>
    <style>
      .cls-1 {
        fill: #00749a;
      }

      .cls-2 {
        clip-path: url(#clippath);
      }

      .cls-3 {
        fill: none;
      }
    </style>
    <clipPath id="clippath">
      <rect class="cls-3" width="1886.31" height="1884.57"/>
    </clipPath>
  </defs>
  <g class="cls-2">
    <g>
      <path class="cls-1" d="M134.07,942.26c0,319.98,186.12,596.47,456.01,727.52L204.12,613.29c-46.27,103.51-70.14,215.61-70.05,328.98h0Zm1355.31-40.79c0-99.9-35.92-169.09-66.72-222.94-41.01-66.59-79.44-122.97-79.44-189.56,0-74.31,56.39-143.48,135.85-143.48,3.59,0,6.99,.45,10.5,.65-143.97-131.76-335.75-212.2-546.39-212.2-282.66,0-531.35,144.89-676.02,364.35,18.98,.57,36.89,.95,52.07,.95,84.63,0,215.63-10.26,215.63-10.26,43.62-2.57,48.76,61.43,5.2,66.59,0,0-43.85,5.15-92.62,7.71l294.64,875.58,177.08-530.55-126.08-345.05c-43.57-2.55-84.85-7.71-84.85-7.71-43.6-2.55-38.49-69.15,5.11-66.59,0,0,133.62,10.26,213.12,10.26,84.61,0,215.63-10.26,215.63-10.26,43.65-2.57,48.77,61.43,5.19,66.59,0,0-43.92,5.15-92.61,7.71l292.39,868.95,80.69-269.44c34.99-111.81,61.61-192.11,61.61-261.31h0Z"/>
      <path class="cls-1" d="M957.37,1012.97l-242.76,704.74c74.22,21.85,151.19,32.95,228.56,32.95,94.22,0,184.58-16.29,268.69-45.82-2.26-3.53-4.18-7.26-5.76-11.14l-248.73-680.73Zm695.76-458.53c3.48,25.75,5.45,53.4,5.45,83.12,0,82.03-15.33,174.24-61.52,289.54l-247.15,713.89c240.54-140.14,402.34-400.5,402.34-698.73,.22-135.56-33.88-268.97-99.12-387.83h0Z"/>
      <path class="cls-1" d="M943.17,0C423.12,0,0,422.69,0,942.26s423.1,942.32,943.17,942.32,943.22-422.68,943.22-942.32C1886.37,422.69,1463.21,0,943.17,0Zm0,1841.38c-496.2,0-899.92-403.35-899.92-899.12S446.95,43.22,943.17,43.22s899.88,403.31,899.88,899.04-403.71,899.12-899.88,899.12h0Z"/>
    </g>
  </g>
</svg>